<svg width="22" height="18" viewBox="0 0 22 18" fill="none" xmlns="http://www.w3.org/2000/svg">
<path d="M7.9707 8.02174H9.32845L8.63915 6.0459L7.9707 8.02174Z" fill="white"/>
<path d="M11.0001 0C5.23478 0 0.555664 3.53674 0.555664 7.90333C0.555664 10.2546 1.93433 12.3292 4.08589 13.7913L3.14589 17.0909L7.84589 15.4115C8.84855 15.6486 9.893 15.8264 11.0001 15.8264C16.7654 15.8264 21.4446 12.2896 21.4446 7.92309C21.4446 3.5565 16.7654 0 11.0001 0ZM10.9374 9.99774C10.9374 9.99774 10.8539 10.0965 10.7912 10.136C10.7286 10.1755 10.6659 10.1953 10.6032 10.1953C10.3943 10.1953 10.2481 10.1755 10.1437 10.0768C10.0392 9.97794 9.93478 9.81986 9.87211 9.58283L9.64233 8.89127H7.69966L7.46989 9.58283C7.40722 9.80014 7.30278 9.95822 7.19833 10.0768C7.09389 10.1755 6.92678 10.2151 6.73878 10.1953C6.67611 10.1953 6.59255 10.1755 6.55078 10.136C6.48811 10.0965 6.44633 10.057 6.40455 9.99774C6.36278 9.93842 6.34189 9.87918 6.34189 9.80014C6.34189 9.7211 6.34189 9.62226 6.38366 9.52351L7.88766 5.27547C7.88766 5.27547 7.95033 5.11741 7.99211 5.05813C8.03389 4.97909 8.09655 4.91982 8.15922 4.86054C8.22189 4.80127 8.30544 4.76175 8.389 4.72224C8.47255 4.68272 8.577 4.66296 8.70233 4.66296C8.93211 4.66296 9.12011 4.72224 9.22455 4.84079C9.34989 4.95933 9.43344 5.09765 9.49611 5.27547L11.021 9.52351C11.0628 9.62226 11.0628 9.7211 11.0628 9.80014C11.0628 9.87918 11.0419 9.93842 11.0001 9.99774H10.9374ZM12.7757 10.2348C12.6294 10.3731 12.4623 10.4324 12.2534 10.4324C12.149 10.4324 12.0654 10.4324 11.961 10.3731C11.8774 10.3336 11.7939 10.2941 11.7312 10.2348C11.6686 10.1755 11.6059 10.0965 11.5641 10.0175C11.5223 9.93842 11.5014 9.83966 11.5014 9.74082C11.5014 9.64207 11.5014 9.56303 11.5641 9.48399C11.6268 9.40495 11.6477 9.32591 11.7312 9.26667C11.7939 9.20735 11.8774 9.14811 11.961 9.10859C12.0446 9.06907 12.149 9.04935 12.2534 9.04935C12.3579 9.04935 12.4414 9.04935 12.5459 9.10859C12.6294 9.14811 12.713 9.18763 12.7757 9.26667C12.8383 9.34571 12.901 9.40495 12.9219 9.48399C12.9637 9.56303 12.9846 9.66178 12.9846 9.74082C12.9846 9.93842 12.9219 10.0965 12.7757 10.2348ZM15.1779 9.66178C15.1779 9.83966 15.1152 9.95822 15.0108 10.057C14.8854 10.1557 14.7601 10.1953 14.593 10.1953C14.4259 10.1953 14.2797 10.1557 14.1752 10.057C14.0708 9.95822 14.0081 9.81986 14.0081 9.66178V5.2162C14.0081 5.03837 14.0708 4.91982 14.1752 4.82103C14.2797 4.72224 14.4259 4.66296 14.593 4.66296C14.7392 4.66296 14.8854 4.72224 15.0108 4.82103C15.1361 4.91982 15.1779 5.05813 15.1779 5.2162V9.66178Z" fill="white"/>
</svg>
