<svg width="22" height="19" viewBox="0 0 22 19" fill="none" xmlns="http://www.w3.org/2000/svg">
<g clip-path="url(#clip0_11329_9272)">
<path d="M4 5.42847H1C0.447715 5.42847 0 5.91456 0 6.51418V17.9142C0 18.5138 0.447715 18.9999 1 18.9999H4C4.55228 18.9999 5 18.5138 5 17.9142V6.51418C5 5.91456 4.55228 5.42847 4 5.42847Z" fill="white"/>
<path d="M20.5 10.8572H17.5C16.9477 10.8572 16.5 11.3433 16.5 11.9429V17.9143C16.5 18.5139 16.9477 19 17.5 19H20.5C21.0523 19 21.5 18.5139 21.5 17.9143V11.9429C21.5 11.3433 21.0523 10.8572 20.5 10.8572Z" fill="white"/>
<path d="M12.25 0H9.25C8.69772 0 8.25 0.486091 8.25 1.08571V17.9143C8.25 18.5139 8.69772 19 9.25 19H12.25C12.8023 19 13.25 18.5139 13.25 17.9143V1.08571C13.25 0.486091 12.8023 0 12.25 0Z" fill="white"/>
</g>
<defs>
<clipPath id="clip0_11329_9272">
<rect width="22" height="19" fill="white"/>
</clipPath>
</defs>
</svg>
