<svg width="17" height="17" viewBox="0 0 17 17" fill="none" xmlns="http://www.w3.org/2000/svg">
<path d="M0.166748 2.53745V14.4625C0.166748 15.5811 1.06562 16.5 2.2042 16.5H14.1293C15.2479 16.5 16.1667 15.6011 16.1667 14.4625V2.53745C16.1667 1.41885 15.2679 0.5 14.1293 0.5H2.2042C1.06562 0.5 0.166748 1.39888 0.166748 2.53745ZM14.1493 2.53745V4.51498C14.1493 4.51498 14.1293 4.51498 14.1093 4.51498H2.2042C2.2042 4.51498 2.18423 4.51498 2.16425 4.51498V2.53745L2.2042 2.4975L14.1493 2.53745ZM14.1493 6.53246V8.50999C14.1493 8.50999 14.1293 8.50999 14.1093 8.50999H2.2042C2.2042 8.50999 2.18423 8.50999 2.16425 8.50999V6.53246L2.2042 6.49251L14.1493 6.53246ZM8.15676 10.5275V12.505H2.18423V10.5075L8.17674 10.5474L8.15676 10.5275Z" fill="white"/>
</svg>
