<svg width="14" height="14" viewBox="0 0 14 14" fill="none" xmlns="http://www.w3.org/2000/svg">
<circle cx="7" cy="7" r="7" fill="#F5F5F5"/>
<path d="M6.3323 7.61737L6.3323 10.9557C6.3323 11.3238 6.63179 11.6233 6.99996 11.6233C7.36813 11.6233 7.66762 11.3238 7.66762 10.9557L7.66762 7.61737L11.0059 7.61737C11.3741 7.61737 11.6736 7.31787 11.6736 6.94971C11.6736 6.58154 11.3741 6.28205 11.0059 6.28205L7.66762 6.28205L7.66762 2.94374C7.66762 2.57558 7.36813 2.27608 6.99996 2.27608C6.63179 2.27608 6.3323 2.57558 6.3323 2.94374L6.3323 6.28205L2.994 6.28205C2.62583 6.28205 2.32634 6.58154 2.32634 6.94971C2.32634 7.31787 2.62583 7.61737 2.994 7.61737L6.3323 7.61737Z" fill="#151414"/>
</svg>
