<svg width="32" height="32" viewBox="0 0 32 32" fill="none" xmlns="http://www.w3.org/2000/svg">
<circle cx="16" cy="16" r="16" fill="#313131"/>
<g clip-path="url(#clip0_10860_523)">
<path d="M14.3437 19.9658C14.1497 19.9658 14.0272 19.8713 14.0272 19.6576L13.9303 15.4335C13.9303 15.2446 14.0528 15.1253 14.2467 15.1253H15.1247C17.5389 15.1253 18.5853 14.0072 18.5853 12.4666C18.5853 11.0403 17.6359 10.1408 16.023 10.1408C14.6602 10.1408 13.7567 10.8515 13.2208 12.0193C13.1238 12.1833 12.9758 12.2579 12.8073 12.2082L10.245 11.5572C10.0511 11.5075 9.95409 11.3683 10.0255 11.1795C10.9749 8.56543 13.2412 7 16.268 7C19.6317 7 22 9.01767 22 12.1535C22 14.7427 20.3667 17.0436 17.4164 17.6648L17.0745 17.7344L17.0234 19.6576C17.0234 19.8713 16.9009 19.9658 16.707 19.9658H14.3437ZM13.5628 23.1712C13.5628 22.0779 14.4152 21.3672 15.5126 21.3672C16.61 21.3672 17.4624 22.0779 17.4624 23.1712C17.4624 24.2645 16.61 25 15.5126 25C14.4152 25 13.5628 24.2645 13.5628 23.1712Z" fill="black"/>
</g>
<defs>
<clipPath id="clip0_10860_523">
<rect width="12" height="18" fill="white" transform="translate(10 7)"/>
</clipPath>
</defs>
</svg>
