<svg width="8" height="8" viewBox="0 0 8 8" fill="none" xmlns="http://www.w3.org/2000/svg">
<g clip-path="url(#clip0_11246_9044)">
<path d="M6.85714 1.90476H6.09524V1.14286C6.09524 0.510476 5.58476 0 4.95238 0H1.14286C0.510476 0 0 0.510476 0 1.14286V4.95238C0 5.58476 0.510476 6.09524 1.14286 6.09524H1.90476V6.85714C1.90476 7.48952 2.41524 8 3.04762 8H6.85714C7.48952 8 8 7.48952 8 6.85714V3.04762C8 2.41524 7.48952 1.90476 6.85714 1.90476ZM1.14286 5.33333C0.929524 5.33333 0.761905 5.16571 0.761905 4.95238V1.14286C0.761905 0.929524 0.929524 0.761905 1.14286 0.761905H4.95238C5.16571 0.761905 5.33333 0.929524 5.33333 1.14286V1.90476H3.04762C2.41524 1.90476 1.90476 2.41524 1.90476 3.04762V5.33333H1.14286ZM7.2381 6.85714C7.2381 7.07048 7.07048 7.2381 6.85714 7.2381H3.04762C2.83429 7.2381 2.66667 7.07048 2.66667 6.85714V3.04762C2.66667 2.83429 2.83429 2.66667 3.04762 2.66667H6.85714C7.07048 2.66667 7.2381 2.83429 7.2381 3.04762V6.85714Z" fill="black"/>
</g>
<defs>
<clipPath id="clip0_11246_9044">
<rect width="8" height="8" fill="white"/>
</clipPath>
</defs>
</svg>
