<svg width="165" height="24" viewBox="0 0 165 24" fill="none" xmlns="http://www.w3.org/2000/svg">
<rect width="5" height="5" transform="matrix(0.710388 0.70381 -0.710388 0.70381 64.552 10)" fill="#FFF623"/>
<path d="M25.636 19H23.674C23.53 19 23.44 18.91 23.44 18.766V6.022C23.44 5.878 23.53 5.788 23.674 5.788H31.72C31.864 5.788 31.954 5.878 31.954 6.022V7.84C31.954 7.984 31.864 8.074 31.72 8.074H25.87V11.494H30.91C31.054 11.494 31.144 11.584 31.144 11.728V13.546C31.144 13.69 31.054 13.78 30.91 13.78H25.87V18.766C25.87 18.91 25.78 19 25.636 19ZM39.2605 19.252C36.6685 19.252 33.9145 17.812 33.9145 13.618V6.022C33.9145 5.878 34.0045 5.788 34.1485 5.788H36.1105C36.2545 5.788 36.3445 5.878 36.3445 6.022V13.186C36.3445 15.778 37.6045 16.876 39.2605 16.876C40.8985 16.876 42.1945 15.778 42.1945 13.186V6.022C42.1945 5.878 42.2845 5.788 42.4285 5.788H44.3905C44.5345 5.788 44.6245 5.878 44.6245 6.022V13.618C44.6245 17.812 41.8525 19.252 39.2605 19.252ZM49.5226 19H47.6506C47.5066 19 47.4166 18.91 47.4166 18.766V6.022C47.4166 5.878 47.5066 5.788 47.6506 5.788H49.7206C49.8466 5.788 49.9366 5.842 50.0086 5.95L55.9126 15.076V6.022C55.9126 5.878 56.0026 5.788 56.1466 5.788H58.0186C58.1626 5.788 58.2526 5.878 58.2526 6.022V18.766C58.2526 18.91 58.1626 19 58.0186 19H55.9666C55.8406 19 55.7506 18.946 55.6786 18.838L49.7566 9.694V18.766C49.7566 18.91 49.6666 19 49.5226 19Z" fill="#FFF623"/>
<path d="M77.668 19.252C73.816 19.252 71.008 16.534 71.008 12.394C71.008 8.254 73.816 5.536 77.668 5.536C81.52 5.536 84.328 8.254 84.328 12.394C84.328 16.534 81.52 19.252 77.668 19.252ZM77.668 16.876C80.206 16.876 81.808 15.004 81.808 12.394C81.808 9.784 80.206 7.912 77.668 7.912C75.13 7.912 73.528 9.784 73.528 12.394C73.528 15.004 75.13 16.876 77.668 16.876ZM92.1134 19H90.4394C90.3134 19 90.2234 18.946 90.1694 18.82L85.0034 6.058C84.9314 5.896 85.0214 5.788 85.1834 5.788H87.4514C87.5774 5.788 87.6854 5.842 87.7214 5.968L91.3034 15.634L94.8674 5.968C94.9034 5.842 95.0114 5.788 95.1374 5.788H97.3694C97.5314 5.788 97.6214 5.896 97.5494 6.058L92.3834 18.82C92.3294 18.946 92.2394 19 92.1134 19ZM108.191 19H99.6232C99.4792 19 99.3892 18.91 99.3892 18.766V6.022C99.3892 5.878 99.4792 5.788 99.6232 5.788H107.975C108.119 5.788 108.209 5.878 108.209 6.022V7.84C108.209 7.984 108.119 8.074 107.975 8.074H101.819V11.08H107.381C107.525 11.08 107.615 11.17 107.615 11.314V13.096C107.615 13.24 107.525 13.33 107.381 13.33H101.819V16.714H108.191C108.335 16.714 108.425 16.804 108.425 16.948V18.766C108.425 18.91 108.335 19 108.191 19ZM112.747 19H110.785C110.641 19 110.551 18.91 110.551 18.766V6.022C110.551 5.878 110.641 5.788 110.785 5.788H114.781C118.435 5.788 120.019 7.408 120.019 10.396C120.019 12.016 119.407 13.384 118.093 14.212L120.559 18.712C120.649 18.874 120.577 19 120.397 19H118.183C118.057 19 117.967 18.946 117.913 18.838L115.789 14.95C115.465 14.986 115.141 15.004 114.781 15.004H112.981V18.766C112.981 18.91 112.891 19 112.747 19ZM112.981 8.038V12.754H114.691C116.599 12.754 117.499 12.052 117.499 10.396C117.499 8.74 116.599 8.038 114.691 8.038H112.981ZM127.377 19H122.985C122.841 19 122.751 18.91 122.751 18.766V6.022C122.751 5.878 122.841 5.788 122.985 5.788H127.377C131.769 5.788 134.055 8.236 134.055 12.394C134.055 16.534 131.769 19 127.377 19ZM125.181 8.074V16.714H127.107C130.041 16.714 131.535 15.166 131.535 12.394C131.535 9.622 130.041 8.074 127.107 8.074H125.181ZM138.693 19H136.731C136.587 19 136.497 18.91 136.497 18.766V6.022C136.497 5.878 136.587 5.788 136.731 5.788H138.693C138.837 5.788 138.927 5.878 138.927 6.022V18.766C138.927 18.91 138.837 19 138.693 19ZM147.871 19H146.197C146.071 19 145.981 18.946 145.927 18.82L140.761 6.058C140.689 5.896 140.779 5.788 140.941 5.788H143.209C143.335 5.788 143.443 5.842 143.479 5.968L147.061 15.634L150.625 5.968C150.661 5.842 150.769 5.788 150.895 5.788H153.127C153.289 5.788 153.379 5.896 153.307 6.058L148.141 18.82C148.087 18.946 147.997 19 147.871 19ZM163.949 19H155.381C155.237 19 155.147 18.91 155.147 18.766V6.022C155.147 5.878 155.237 5.788 155.381 5.788H163.733C163.877 5.788 163.967 5.878 163.967 6.022V7.84C163.967 7.984 163.877 8.074 163.733 8.074H157.577V11.08H163.139C163.283 11.08 163.373 11.17 163.373 11.314V13.096C163.373 13.24 163.283 13.33 163.139 13.33H157.577V16.714H163.949C164.093 16.714 164.183 16.804 164.183 16.948V18.766C164.183 18.91 164.093 19 163.949 19Z" fill="#FFF623"/>
<path d="M9.62217 2.71436H8.37783C3.75065 2.71436 0 6.46501 0 11.0922V12.3365C0 16.9637 3.75065 20.7144 8.37783 20.7144H9.62217C14.2493 20.7144 18 16.9637 18 12.3365V11.0922C18 6.46501 14.2493 2.71436 9.62217 2.71436ZM15.1865 10.7557L10.0722 17.8128C8.71239 19.6891 6.12978 20.2976 4.14196 19.1081C1.87043 17.7483 1.29522 14.7724 2.81348 12.675L7.98652 5.53566C9.42848 3.54783 12.2087 3.1037 14.1965 4.54566C16.1843 5.98762 16.6285 8.76783 15.1865 10.7557Z" fill="#FFF623"/>
<rect width="3.23833" height="3.23833" transform="matrix(0.617648 0.786454 -0.617648 0.786454 9.00024 9.40869)" fill="#FFF623"/>
</svg>
