<svg width="24" height="24" viewBox="0 0 24 24" fill="none" xmlns="http://www.w3.org/2000/svg">
<path d="M14.3463 0H9.64852C4.31953 0 0 4.31953 0 9.65113V14.3489C0 19.6779 4.31953 24 9.65113 24H14.3489C19.6779 24 24 19.6805 24 14.3489V9.65113C23.9974 4.31953 19.6779 0 14.3463 0ZM20.3456 12.0352L12.0352 20.3456C9.72155 22.6593 5.96805 22.6593 3.65178 20.3456C1.33812 18.032 1.33812 14.2784 3.65178 11.9622L11.9622 3.65178C14.2758 1.33812 18.0293 1.33812 20.3456 3.65178C22.6593 5.96544 22.6593 9.71894 20.3456 12.0352Z" fill="#3D3D3D"/>
</svg>
