<svg width="15" height="15" viewBox="0 0 15 15" fill="none" xmlns="http://www.w3.org/2000/svg">
<path d="M14.68 13.1452L10.6121 9.05225C11.0082 8.40842 11.2977 7.67261 11.3891 6.86016L11.4805 6.07837C11.8309 3.15048 9.74363 0.483186 6.81835 0.130613L6.04132 0.0386378C3.11604 -0.313935 0.465 1.78617 0.129811 4.71406L0.0383962 5.49586C-0.312028 8.42375 1.77528 11.091 4.70057 11.4436L5.47759 11.5356C6.80311 11.6889 8.06769 11.321 9.10373 10.6158L13.1412 14.6781C13.5678 15.1073 14.2534 15.1073 14.68 14.6781C15.1067 14.2489 15.1067 13.559 14.68 13.1298V13.1452ZM5.9042 8.65369C5.17288 9.45081 3.96925 9.58877 3.11604 8.92961C2.14094 8.17848 2.04953 6.76819 2.85703 5.89442L5.61472 2.88988C6.37651 2.04677 7.68679 2.00078 8.50953 2.76725C9.3475 3.53371 9.39321 4.85203 8.63141 5.67981L5.9042 8.65369Z" fill="white"/>
</svg>
