<svg width="16" height="18" viewBox="0 0 16 18" fill="none" xmlns="http://www.w3.org/2000/svg">
<g clip-path="url(#clip0_10719_9715)">
<path d="M8 3.43984V0L2.44 5.49646C0.94 6.82508 0 8.6815 0 10.7381C0 14.7604 3.58 18.0182 8 18.0182C12.42 18.0182 16 14.7604 16 10.7381C16 6.71587 12.42 3.43984 8 3.43984ZM8 17.09C4.9 17.09 2.4 14.815 2.4 11.9939C2.4 10.5561 3.06 9.2639 4.1 8.33569L8 4.49545V6.89788C11.1 6.89788 13.6 9.1729 13.6 11.9939C13.6 14.815 11.1 17.09 8 17.09Z" fill="#F5F5F5"/>
</g>
<defs>
<clipPath id="clip0_10719_9715">
<rect width="16" height="18" fill="white"/>
</clipPath>
</defs>
</svg>
