<svg width="42" height="34" viewBox="0 0 42 34" fill="none" xmlns="http://www.w3.org/2000/svg">
<path d="M35.578 3.39866C32.8593 2.12663 29.9523 1.20218 26.9131 0.675781C26.5398 1.3506 26.1038 2.25825 25.8031 2.98027C22.5724 2.49441 19.3713 2.49441 16.2 2.98027C15.8994 2.25825 15.4535 1.3506 15.0769 0.675781C12.0344 1.20218 9.12407 2.13003 6.40534 3.4054C0.921625 11.692 -0.56492 19.7728 0.178354 27.7388C3.81544 30.4549 7.34022 32.1049 10.8055 33.1845C11.6611 32.007 12.4242 30.7552 13.0816 29.436C11.8296 28.9603 10.6304 28.3732 9.49738 27.6916C9.79797 27.4689 10.092 27.2361 10.3761 26.9965C17.2868 30.2289 24.7956 30.2289 31.6238 26.9965C31.9112 27.2361 32.2052 27.4689 32.5025 27.6916C31.3661 28.3765 30.1637 28.9636 28.9117 29.4394C29.569 30.7552 30.3288 32.0104 31.1877 33.1879C34.6564 32.1082 38.1844 30.4583 41.8215 27.7388C42.6936 18.5042 40.3317 10.4976 35.578 3.39866ZM14.0231 22.8398C11.9485 22.8398 10.2472 20.9031 10.2472 18.5446C10.2472 16.1862 11.9122 14.2461 14.0231 14.2461C16.134 14.2461 17.8352 16.1828 17.7989 18.5446C17.8022 20.9031 16.134 22.8398 14.0231 22.8398ZM27.9768 22.8398C25.9023 22.8398 24.201 20.9031 24.201 18.5446C24.201 16.1862 25.8659 14.2461 27.9768 14.2461C30.0877 14.2461 31.789 16.1828 31.7526 18.5446C31.7526 20.9031 30.0877 22.8398 27.9768 22.8398Z" fill="white"/>
</svg>
