<svg width="22" height="22" viewBox="0 0 22 22" fill="none" xmlns="http://www.w3.org/2000/svg">
<path d="M11.7604 0H10.2396C4.58413 0 0 4.58413 0 10.2396V11.7604C0 17.4159 4.58413 22 10.2396 22H11.7604C17.4159 22 22 17.4159 22 11.7604V10.2396C22 4.58413 17.4159 0 11.7604 0ZM18.5613 9.82826L12.3104 18.4537C10.6485 20.747 7.49196 21.4907 5.06239 20.0367C2.28609 18.3748 1.58304 14.7376 3.4387 12.1741L9.7613 3.44826C11.5237 1.0187 14.9217 0.47587 17.3513 2.23826C19.7809 4.00065 20.3237 7.3987 18.5613 9.82826Z" fill="#3D3D3D"/>
<rect x="11" y="8.55566" width="3.45723" height="3.45723" transform="rotate(45 11 8.55566)" fill="#3D3D3D"/>
</svg>
