<svg width="30" height="30" viewBox="0 0 30 30" fill="none" xmlns="http://www.w3.org/2000/svg">
<path d="M16.037 0H13.963C6.25109 0 0 6.25109 0 13.963V16.037C0 23.7489 6.25109 30 13.963 30H16.037C23.7489 30 30 23.7489 30 16.037V13.963C30 6.25109 23.7489 0 16.037 0ZM25.3109 13.4022L16.787 25.1641C14.5207 28.2913 10.2163 29.3054 6.90326 27.3228C3.11739 25.0565 2.1587 20.0967 4.68913 16.6011L13.3109 4.70217C15.7141 1.38913 20.3478 0.648913 23.6609 3.05217C26.9739 5.45543 27.7141 10.0891 25.3109 13.4022Z" fill="#DFDFDF"/>
<rect x="15" y="11.6665" width="4.7144" height="4.7144" transform="rotate(45 15 11.6665)" fill="#DFDFDF"/>
</svg>
