<svg width="29" height="22" viewBox="0 0 29 22" fill="none" xmlns="http://www.w3.org/2000/svg">
<path fill-rule="evenodd" clip-rule="evenodd" d="M1.98559 9.48842C9.76862 6.39348 14.9499 4.33698 17.5516 3.33927C24.9566 0.509035 26.5132 0.0203614 27.5139 0C27.7363 0 28.2255 0.0407228 28.5591 0.28506C28.8259 0.488674 28.8926 0.753372 28.9371 0.956986C28.9816 1.1606 29.026 1.58819 28.9816 1.91397C28.5813 5.78264 26.8468 15.1693 25.9573 19.4859C25.5793 21.3184 24.8455 21.9292 24.1339 21.9903C22.5773 22.1125 21.3987 21.0537 19.9088 20.1578C17.5516 18.7529 16.2396 17.8773 13.9492 16.4927C11.303 14.9046 13.0153 14.029 14.5274 12.6037C14.9277 12.2372 21.7545 6.53601 21.8879 6.02698C21.9101 5.96589 21.9101 5.72156 21.7545 5.59939C21.5988 5.47722 21.3764 5.51794 21.1985 5.55867C20.9539 5.59939 17.2181 7.87987 9.94652 12.3797C8.87913 13.0517 7.92293 13.3774 7.05568 13.3571C6.09948 13.3367 4.27603 12.8684 2.89732 12.4612C1.22953 11.9725 -0.104707 11.7078 0.00647929 10.8526C0.0731909 10.4047 0.740308 9.95673 1.98559 9.48842Z" fill="#DFDFDF"/>
</svg>
