<svg width="20" height="20" viewBox="0 0 20 20" fill="none" xmlns="http://www.w3.org/2000/svg">
<path d="M10 0C15.5229 0 20 4.47714 20 10C20 15.5229 15.5229 20 10 20C4.47714 20 0 15.5229 0 10C0 4.47714 4.47714 0 10 0ZM18.7183 10.625H16.5738C16.526 11.6627 16.3692 12.6121 16.1257 13.4647H18.0313C18.4129 12.5836 18.647 11.6269 18.7183 10.625ZM6.9151 9.37502C6.96212 8.37041 7.08122 7.41882 7.24245 6.53535H5.1938C4.9211 7.37388 4.73392 8.31943 4.67747 9.37502H6.9151ZM11.5763 13.4647C11.7527 12.4907 11.8393 11.54 11.8553 10.625H8.14461C8.16061 11.54 8.24722 12.4907 8.42367 13.4647H11.5763ZM8.696 14.7147C8.98906 15.8397 9.41327 16.9865 10.0001 18.1358C10.5869 16.9865 11.011 15.8397 11.304 14.7147H8.696ZM11.8383 9.37502C11.7888 8.36465 11.6611 7.41257 11.4914 6.53535H8.50857C8.3389 7.41257 8.21118 8.36465 8.16163 9.37502H11.8383ZM11.2105 5.28539C10.8199 3.76053 10.3373 2.55743 10.0001 1.81669C9.66282 2.55743 9.18016 3.76053 8.78947 5.28539H11.2105ZM7.50735 5.28539C7.90612 3.63286 8.41816 2.30539 8.79825 1.44743C8.32588 1.78355 6.75653 3.02592 5.686 5.28539H7.50735ZM11.2019 1.44735C11.582 2.30531 12.094 3.63282 12.4927 5.28539H14.3142C13.2436 3.02571 11.6741 1.78335 11.2019 1.44735ZM12.7576 6.53539C12.9188 7.41886 13.0378 8.37045 13.0849 9.37506H15.3227C15.2663 8.31951 15.0791 7.37392 14.8064 6.53539H12.7576ZM16.5724 9.37502H18.7183C18.647 8.37318 18.413 7.41649 18.0314 6.53535H16.117C16.3624 7.38784 16.5223 8.33657 16.5724 9.37502ZM15.3234 10.625H13.102C13.0878 11.5415 13.0107 12.491 12.8473 13.4647H14.8058C15.0808 12.624 15.2686 11.6782 15.3234 10.625ZM12.5884 14.7147C12.2818 15.9875 11.8264 17.2883 11.1703 18.5944C11.613 18.2774 13.2224 17.0115 14.3137 14.7147H12.5884ZM8.83122 18.5972C8.17433 17.2902 7.71849 15.9884 7.41159 14.7147H5.67384C6.7618 17.0232 8.37812 18.2787 8.83122 18.5972ZM7.15269 13.4647C6.98922 12.491 6.91212 11.5415 6.89796 10.625H4.67616C4.72992 11.6801 4.91469 12.6257 5.18567 13.4647H7.15269ZM3.42649 10.625H1.28167C1.35302 11.6269 1.58706 12.5836 1.96865 13.4647H3.87453C3.63098 12.6121 3.47421 11.6627 3.42649 10.625ZM3.4278 9.37502C3.47792 8.33653 3.63784 7.38784 3.88318 6.53535H1.96857C1.58694 7.41645 1.35294 8.37314 1.28163 9.37502H3.4278ZM2.64045 5.28539H4.3238C4.88253 3.93951 5.61094 2.87486 6.29641 2.08392C4.79694 2.78841 3.52988 3.90188 2.64045 5.28539ZM13.704 2.08408C14.3894 2.87502 15.1177 3.93963 15.6764 5.28539H17.3596C16.4702 3.90196 15.2033 2.78861 13.704 2.08408ZM17.3595 14.7147H15.6866C15.1363 16.0468 14.4182 17.1079 13.7375 17.8998C15.2221 17.1944 16.4768 16.0877 17.3595 14.7147ZM6.2622 17.8996C5.58171 17.1078 4.86371 16.0467 4.31355 14.7147H2.64049C3.5231 16.0876 4.77776 17.1942 6.2622 17.8996Z" fill="#3D3D3D"/>
</svg>
