<svg width="14" height="14" viewBox="0 0 14 14" fill="none" xmlns="http://www.w3.org/2000/svg">
<circle cx="7" cy="7" r="7" fill="#D9D9D9"/>
<g clip-path="url(#clip0_10557_9863)">
<path d="M8.8346 3.54568C8.4568 3.54568 8.10947 3.54202 7.76174 3.5469C7.44289 3.55138 7.19643 3.72586 7.10307 4.00162C6.95037 4.45268 7.26487 4.8895 7.7566 4.89438C8.4208 4.90048 9.08501 4.89601 9.74882 4.89601C9.82715 4.89601 9.90547 4.89601 9.99883 4.89601V10.8582H8.45997V10.366C8.40261 10.3937 8.36463 10.4022 8.33891 10.4254C7.2178 11.4374 5.08158 11.1246 4.30186 9.39357C3.74011 8.14533 3.97272 6.60059 4.90317 5.70295C5.13934 5.47478 5.42931 5.30558 5.6991 5.10588C5.65796 4.89723 5.59308 4.66377 5.56856 4.42584C5.43841 3.16418 6.39061 2.04487 7.62209 2.00664C7.97022 1.99606 8.31913 1.99972 8.66726 2.00949C8.72383 2.01111 8.82629 2.07781 8.82708 2.11605C8.83816 2.58093 8.8342 3.04663 8.8342 3.54568H8.8346ZM8.50981 7.33798C8.50506 7.33798 8.50032 7.33758 8.49557 7.33717C8.49557 7.19522 8.49557 7.05328 8.49557 6.91133C8.49557 6.45295 8.49557 6.45051 8.05448 6.45336C7.61458 6.4562 7.16795 6.41797 6.73596 6.48142C5.9867 6.59124 5.47757 7.29853 5.5203 8.08107C5.56183 8.84042 6.17263 9.44848 6.94246 9.49647C7.66759 9.54162 8.33654 9.0023 8.45878 8.24579C8.50665 7.94848 8.49478 7.64059 8.50981 7.33798Z" fill="black"/>
</g>
<defs>
<clipPath id="clip0_10557_9863">
<rect width="6" height="9" fill="white" transform="translate(4 2)"/>
</clipPath>
</defs>
</svg>
