<svg width="14" height="14" viewBox="0 0 14 14" fill="none" xmlns="http://www.w3.org/2000/svg">
<g clip-path="url(#clip0_11291_9049)">
<path d="M7 0C3.13381 0 2.38419e-07 3.13381 2.38419e-07 7C2.38419e-07 10.8662 3.13381 14 7 14C10.8662 14 14 10.8662 14 7C14 3.13381 10.8662 0 7 0ZM3.19113 8.53869H9.47625C9.5442 8.53861 9.60944 8.56534 9.65781 8.61306L10.8994 9.84462C10.9175 9.86243 10.9298 9.88521 10.9348 9.91005C10.9398 9.93489 10.9372 9.96066 10.9275 9.98406C10.9178 10.0075 10.9013 10.0274 10.8802 10.0414C10.859 10.0554 10.8342 10.0627 10.8089 10.0625H4.52375C4.4558 10.0626 4.39056 10.0358 4.34219 9.98813L3.10056 8.75612C3.08269 8.73829 3.07052 8.71555 3.06561 8.69079C3.06069 8.66602 3.06325 8.64036 3.07296 8.61705C3.08266 8.59374 3.09908 8.57385 3.12012 8.5599C3.14116 8.54594 3.16588 8.53856 3.19113 8.53869ZM4.52375 6.22344H10.8089L10.8386 6.2265C10.8608 6.2316 10.8812 6.24255 10.8978 6.25823C10.9143 6.2739 10.9263 6.29371 10.9325 6.31561C10.9388 6.3375 10.9391 6.36067 10.9333 6.3827C10.9276 6.40473 10.916 6.42482 10.8999 6.44087L9.65738 7.67287L9.62675 7.69912C9.583 7.72975 9.5305 7.74725 9.47625 7.74725H3.19113L3.16137 7.74419C3.13918 7.73909 3.11877 7.72813 3.10225 7.71246C3.08573 7.69679 3.07372 7.67697 3.06746 7.65508C3.06121 7.63319 3.06094 7.61002 3.06668 7.58799C3.07243 7.56595 3.08398 7.54586 3.10013 7.52981L4.34263 6.29781L4.37325 6.27156C4.41715 6.24018 4.46979 6.22335 4.52375 6.22344ZM3.19113 3.9375H9.47625C9.5442 3.93743 9.60944 3.96415 9.65781 4.01188L10.8994 5.24388C10.9173 5.26171 10.9295 5.28445 10.9344 5.30921C10.9393 5.33398 10.9368 5.35964 10.927 5.38295C10.9173 5.40626 10.9009 5.42615 10.8799 5.4401C10.8588 5.45406 10.8341 5.46144 10.8089 5.46131H4.52375C4.4558 5.46139 4.39056 5.43466 4.34219 5.38694L3.10056 4.15538C3.08254 4.13757 3.07024 4.11479 3.06523 4.08995C3.06023 4.06511 3.06275 4.03934 3.07248 4.01594C3.0822 3.99254 3.09869 3.97258 3.11983 3.95861C3.14096 3.94463 3.16579 3.93728 3.19113 3.9375Z" fill="#D9D9D9"/>
</g>
<defs>
<clipPath id="clip0_11291_9049">
<rect width="14" height="14" fill="white" transform="matrix(-1 0 0 1 14 0)"/>
</clipPath>
</defs>
</svg>
