<svg width="14" height="14" viewBox="0 0 14 14" fill="none" xmlns="http://www.w3.org/2000/svg">
<circle cx="7" cy="7" r="7" fill="#D9D9D9"/>
<g clip-path="url(#clip0_10556_9849)">
<path d="M7.01393 6.80044V5.42053C6.76111 5.44571 6.5231 5.45925 6.28769 5.49514C5.66653 5.58991 5.0889 5.81375 4.59284 6.24004C3.79142 6.92794 3.48781 7.84945 3.5685 8.9309C3.69099 10.5712 4.78703 11.6627 6.26331 11.9265C7.18083 12.0906 8.07369 11.993 8.90529 11.5113C9.71803 11.0403 10.2425 10.3306 10.3729 9.3172C10.3755 9.29674 10.3755 9.27627 10.3772 9.24479C10.3375 9.2407 10.3009 9.23377 10.2643 9.23377C9.77202 9.23314 9.28002 9.23188 8.78773 9.23597C8.74361 9.23629 8.67192 9.26116 8.65973 9.29453C8.4786 9.80047 8.09633 10.0205 7.64497 10.1263C7.15616 10.2406 6.66591 10.2308 6.19016 10.0476C5.59077 9.81652 5.27816 9.29894 5.30631 8.60883C5.33272 7.95807 5.67553 7.51447 6.30453 7.34415C6.52223 7.28528 6.74892 7.26481 6.99245 7.22294V8.71461C7.2682 8.68628 7.52654 8.67431 7.77994 8.63055C8.50618 8.50462 9.15985 8.20616 9.68058 7.62341C10.3311 6.89583 10.5639 6.00895 10.4855 5.01849C10.3642 3.48557 9.35404 2.42428 7.92913 2.1107C6.90015 1.88434 5.90077 1.99201 4.97628 2.5713C4.19779 3.05835 3.69941 3.77994 3.509 4.74049C3.50522 4.76001 3.50406 4.78048 3.5 4.81196C3.54238 4.81668 3.57866 4.82424 3.61494 4.82424C4.13132 4.82518 4.64741 4.82676 5.16379 4.82235C5.21168 4.82203 5.28628 4.79401 5.30254 4.75592C5.53997 4.2037 5.97711 3.95026 6.49378 3.84291C7.02932 3.73146 7.56195 3.7579 8.05917 4.03747C8.79528 4.45148 9.00572 5.52757 8.48151 6.2139C8.1924 6.59265 7.78749 6.7233 7.35644 6.77934C7.24788 6.79351 7.13758 6.79319 7.01393 6.80044Z" fill="black"/>
</g>
<defs>
<clipPath id="clip0_10556_9849">
<rect width="7" height="10" fill="white" transform="matrix(1 0 0 -1 3.5 12)"/>
</clipPath>
</defs>
</svg>
